<?xml version="1.0" encoding="UTF-8"?>
<svg id="Capa_1" data-name="Capa 1" xmlns="http://www.w3.org/2000/svg" viewBox="0 0 258.3 80">
  <defs>
    <style>
      .cls-1 {
        fill: #2c2c2d;
      }
    </style>
  </defs>
  <path class="cls-1" d="M19.51,55.4c1.65,0,2.99-1.35,2.99-3s-1.34-3-2.99-3-2.99,1.35-2.99,3,1.34,3,2.99,3ZM19.51,50.58c1,0,1.81.81,1.81,1.81s-.81,1.81-1.81,1.81-1.81-.81-1.81-1.81.81-1.81,1.81-1.81Z"/>
  <path class="cls-1" d="M60.2,55.4c1.65,0,2.99-1.35,2.99-3s-1.34-3-2.99-3-2.99,1.35-2.99,3,1.34,3,2.99,3ZM60.2,50.58c1,0,1.81.81,1.81,1.81s-.81,1.81-1.81,1.81-1.81-.81-1.81-1.81.81-1.81,1.81-1.81Z"/>
  <path class="cls-1" d="M29.67,38.02c1.65,0,2.99-1.35,2.99-3s-1.34-3-2.99-3-2.99,1.35-2.99,3,1.34,3,2.99,3ZM29.67,33.2c1,0,1.81.81,1.81,1.81s-.81,1.81-1.81,1.81-1.81-.81-1.81-1.81.81-1.81,1.81-1.81Z"/>
  <path class="cls-1" d="M50.03,38.02c1.65,0,2.99-1.35,2.99-3s-1.34-3-2.99-3-2.99,1.35-2.99,3,1.34,3,2.99,3ZM50.03,33.2c1,0,1.81.81,1.81,1.81s-.81,1.81-1.81,1.81-1.81-.81-1.81-1.81.81-1.81,1.81-1.81Z"/>
  <path class="cls-1" d="M39.85,55.4c1.65,0,2.99-1.35,2.99-3s-1.34-3-2.99-3-2.99,1.35-2.99,3,1.34,3,2.99,3ZM39.85,50.58c1,0,1.81.81,1.81,1.81s-.81,1.81-1.81,1.81-1.81-.81-1.81-1.81.81-1.81,1.81-1.81Z"/>
  <path class="cls-1" d="M39.86,0C17.84,0,0,17.91,0,40s17.84,40,39.86,40,39.86-17.91,39.86-40S61.87,0,39.86,0ZM67.49,52.4c0,4.04-3.26,7.31-7.28,7.31s-7.28-3.27-7.28-7.31,3.26-7.31,7.28-7.31,7.28,3.27,7.28,7.31ZM57.31,35.02c0,4.04-3.26,7.31-7.28,7.31s-7.28-3.27-7.28-7.31,3.26-7.31,7.28-7.31,7.28,3.27,7.28,7.31ZM39.85,10.32c4.02,0,7.28,3.27,7.28,7.31s-3.26,7.31-7.28,7.31-7.28-3.27-7.28-7.31,3.26-7.31,7.28-7.31ZM31.29,17.63c0,4.74,3.83,8.59,8.56,8.59s8.56-3.84,8.56-8.59h1c0,5.3-4.28,9.59-9.55,9.59s-9.55-4.29-9.55-9.59h1-.02ZM47.13,52.4c0,4.04-3.26,7.31-7.28,7.31s-7.28-3.27-7.28-7.31,3.26-7.31,7.28-7.31,7.28,3.27,7.28,7.31ZM29.67,27.71c4.02,0,7.28,3.27,7.28,7.31s-3.26,7.31-7.28,7.31-7.28-3.27-7.28-7.31,3.26-7.31,7.28-7.31ZM19.51,45.09c4.02,0,7.28,3.27,7.28,7.31s-3.26,7.31-7.28,7.31-7.28-3.27-7.28-7.31,3.26-7.31,7.28-7.31ZM19.51,61.99c-5.28,0-9.55-4.29-9.55-9.59h1c0,4.74,3.83,8.59,8.56,8.59s8.56-3.84,8.56-8.59h1c0,5.3-4.28,9.59-9.55,9.59h-.02ZM20.12,35.02h1c0,4.74,3.83,8.59,8.56,8.59s8.56-3.84,8.56-8.59h1c0,5.3-4.28,9.59-9.55,9.59s-9.55-4.29-9.55-9.59h-.02ZM39.85,61.99c-5.28,0-9.55-4.29-9.55-9.59h1c0,4.74,3.83,8.59,8.56,8.59s8.56-3.84,8.56-8.59h1c0,5.3-4.28,9.59-9.55,9.59h-.02ZM40.47,35.02h1c0,4.74,3.83,8.59,8.56,8.59s8.56-3.84,8.56-8.59h1c0,5.3-4.28,9.59-9.55,9.59s-9.55-4.29-9.55-9.59h-.02ZM60.2,61.99c-5.28,0-9.55-4.29-9.55-9.59h1c0,4.74,3.83,8.59,8.56,8.59s8.56-3.84,8.56-8.59h1c0,5.3-4.28,9.59-9.55,9.59h-.02Z"/>
  <path class="cls-1" d="M39.85,20.64c1.65,0,2.99-1.35,2.99-3s-1.34-3-2.99-3-2.99,1.35-2.99,3,1.34,3,2.99,3ZM39.85,15.82c1,0,1.81.81,1.81,1.81s-.81,1.81-1.81,1.81-1.81-.81-1.81-1.81.81-1.81,1.81-1.81Z"/>
  <path class="cls-1" d="M119.78,60.03h-28.28V20.21h27.71v4.55h-22.42v12.52h17.83v4.49h-17.83v13.72h22.99v4.55h0Z"/>
  <path class="cls-1" d="M153.81,50.68v-30.47h5.1v39.82h-4.35l-23.05-31.98v31.98h-5.1V20.21h5.67l21.73,30.47Z"/>
  <path class="cls-1" d="M186.79,60.79c-11.59,0-19.71-8.41-19.71-20.67s8.12-20.67,19.71-20.67,19.71,8.41,19.71,20.67-8.19,20.67-19.71,20.67ZM186.79,24.13c-8.57,0-14.11,6.26-14.11,15.99s5.54,15.99,14.11,15.99,14.05-6.26,14.05-15.99-5.48-15.99-14.05-15.99Z"/>
  <path class="cls-1" d="M217.32,32.95h-6.02v-12.82h5.7c3.24,0,4.62,1.38,4.62,3.48,0,1.45-.98,2.46-2.36,2.69,1.55.29,2.75,1.3,2.75,3.13,0,2.22-1.69,3.52-4.68,3.52h-.01ZM213.78,25.46h3.05c1.53,0,2.18-.67,2.18-1.63s-.65-1.65-2.18-1.65h-3.05v3.28ZM213.78,27.4v3.5h3.26c1.59,0,2.36-.67,2.36-1.73s-.77-1.77-2.36-1.77h-3.26Z"/>
  <path class="cls-1" d="M233.29,32.95h-9.58v-12.82h9.4v2.12h-6.9v3.11h5.41v2.1h-5.41v3.38h7.08v2.12h0Z"/>
  <path class="cls-1" d="M238.97,32.95v-10.7h-4.54v-2.12h11.68v2.12h-4.6v10.7h-2.54Z"/>
  <path class="cls-1" d="M253.07,20.13l5.23,12.82h-2.71l-1.28-3.17h-5.45l-1.24,3.17h-2.56l5.19-12.82h2.83,0ZM249.63,27.82h3.91l-1.93-4.8h-.08l-1.89,4.8h-.01Z"/>
</svg>