<?xml version="1.0" encoding="UTF-8"?>
<svg id="Capa_1" xmlns="http://www.w3.org/2000/svg" version="1.1" viewBox="0 0 220 80">
  <!-- Generator: Adobe Illustrator 29.3.0, SVG Export Plug-In . SVG Version: 2.1.0 Build 146)  -->
  <defs>
    <style>
      .st0 {
        fill: #fff;
      }
    </style>
  </defs>
  <path class="st0" d="M19.51,55.4c1.65,0,2.99-1.35,2.99-3s-1.34-3-2.99-3-2.99,1.35-2.99,3,1.34,3,2.99,3ZM19.51,50.58c1,0,1.81.81,1.81,1.81s-.81,1.81-1.81,1.81-1.81-.81-1.81-1.81.81-1.81,1.81-1.81Z"/>
  <path class="st0" d="M60.2,55.4c1.65,0,2.99-1.35,2.99-3s-1.34-3-2.99-3-2.99,1.35-2.99,3,1.34,3,2.99,3ZM60.2,50.58c1,0,1.81.81,1.81,1.81s-.81,1.81-1.81,1.81-1.81-.81-1.81-1.81.81-1.81,1.81-1.81Z"/>
  <path class="st0" d="M29.67,38.02c1.65,0,2.99-1.35,2.99-3s-1.34-3-2.99-3-2.99,1.35-2.99,3,1.34,3,2.99,3ZM29.67,33.2c1,0,1.81.81,1.81,1.81s-.81,1.81-1.81,1.81-1.81-.81-1.81-1.81.81-1.81,1.81-1.81Z"/>
  <path class="st0" d="M50.03,38.02c1.65,0,2.99-1.35,2.99-3s-1.34-3-2.99-3-2.99,1.35-2.99,3,1.34,3,2.99,3ZM50.03,33.2c1,0,1.81.81,1.81,1.81s-.81,1.81-1.81,1.81-1.81-.81-1.81-1.81.81-1.81,1.81-1.81Z"/>
  <path class="st0" d="M39.85,55.4c1.65,0,2.99-1.35,2.99-3s-1.34-3-2.99-3-2.99,1.35-2.99,3,1.34,3,2.99,3ZM39.85,50.58c1,0,1.81.81,1.81,1.81s-.81,1.81-1.81,1.81-1.81-.81-1.81-1.81.81-1.81,1.81-1.81Z"/>
  <path class="st0" d="M39.86,0C17.84,0,0,17.91,0,40s17.84,40,39.86,40,39.86-17.91,39.86-40S61.87,0,39.86,0ZM67.49,52.4c0,4.04-3.26,7.31-7.28,7.31s-7.28-3.27-7.28-7.31,3.26-7.31,7.28-7.31,7.28,3.27,7.28,7.31ZM57.31,35.02c0,4.04-3.26,7.31-7.28,7.31s-7.28-3.27-7.28-7.31,3.26-7.31,7.28-7.31,7.28,3.27,7.28,7.31ZM39.85,10.32c4.02,0,7.28,3.27,7.28,7.31s-3.26,7.31-7.28,7.31-7.28-3.27-7.28-7.31,3.26-7.31,7.28-7.31ZM31.29,17.63c0,4.74,3.83,8.59,8.56,8.59s8.56-3.84,8.56-8.59h1c0,5.3-4.28,9.59-9.55,9.59s-9.55-4.29-9.55-9.59h1ZM47.13,52.4c0,4.04-3.26,7.31-7.28,7.31s-7.28-3.27-7.28-7.31,3.26-7.31,7.28-7.31,7.28,3.27,7.28,7.31ZM29.67,27.71c4.02,0,7.28,3.27,7.28,7.31s-3.26,7.31-7.28,7.31-7.28-3.27-7.28-7.31,3.26-7.31,7.28-7.31ZM19.51,45.09c4.02,0,7.28,3.27,7.28,7.31s-3.26,7.31-7.28,7.31-7.28-3.27-7.28-7.31,3.26-7.31,7.28-7.31ZM19.51,61.99c-5.28,0-9.55-4.29-9.55-9.59h1c0,4.74,3.83,8.59,8.56,8.59s8.56-3.84,8.56-8.59h1c0,5.3-4.28,9.59-9.55,9.59ZM20.12,35.02h1c0,4.74,3.83,8.59,8.56,8.59s8.56-3.84,8.56-8.59h1c0,5.3-4.28,9.59-9.55,9.59s-9.55-4.29-9.55-9.59ZM39.85,61.99c-5.28,0-9.55-4.29-9.55-9.59h1c0,4.74,3.83,8.59,8.56,8.59s8.56-3.84,8.56-8.59h1c0,5.3-4.28,9.59-9.55,9.59ZM40.47,35.02h1c0,4.74,3.83,8.59,8.56,8.59s8.56-3.84,8.56-8.59h1c0,5.3-4.28,9.59-9.55,9.59s-9.55-4.29-9.55-9.59ZM60.2,61.99c-5.28,0-9.55-4.29-9.55-9.59h1c0,4.74,3.83,8.59,8.56,8.59s8.56-3.84,8.56-8.59h1c0,5.3-4.28,9.59-9.55,9.59Z"/>
  <path class="st0" d="M39.85,20.64c1.65,0,2.99-1.35,2.99-3s-1.34-3-2.99-3-2.99,1.35-2.99,3,1.34,3,2.99,3ZM39.85,15.82c1,0,1.81.81,1.81,1.81s-.81,1.81-1.81,1.81-1.81-.81-1.81-1.81.81-1.81,1.81-1.81Z"/>
  <path class="st0" d="M119.78,60.03h-28.28V20.21h27.71v4.55h-22.42v12.52h17.83v4.49h-17.83v13.72h22.99v4.55Z"/>
  <path class="st0" d="M153.81,50.68v-30.47h5.1v39.82h-4.35l-23.05-31.98v31.98h-5.1V20.21h5.67l21.73,30.47Z"/>
  <path class="st0" d="M186.79,60.79c-11.59,0-19.71-8.41-19.71-20.67s8.12-20.67,19.71-20.67,19.71,8.41,19.71,20.67-8.19,20.67-19.71,20.67ZM186.79,24.13c-8.57,0-14.11,6.26-14.11,15.99s5.54,15.99,14.11,15.99,14.05-6.26,14.05-15.99-5.48-15.99-14.05-15.99Z"/>
</svg>